<svg xmlns="http://www.w3.org/2000/svg" viewBox="0 0 400 200">
  <!-- Background -->
  <rect width="100%" height="100%" fill="#f2f2f2"/>
  
  <!-- Floral elements -->
  <circle cx="50" cy="50" r="30" fill="#ffc0cb"/>
  <circle cx="120" cy="80" r="20" fill="#ffcc80"/>
  <circle cx="180" cy="40" r="25" fill="#b2dfdb"/>
  <circle cx="230" cy="90" r="18" fill="#e1bee7"/>
  <circle cx="300" cy="30" r="22" fill="#fff176"/>
  
  <!-- Cupcake elements -->
  <path d="M320,160 Q320,140 340,140 Q360,140 360,160 Q360,180 340,180 Q320,180 320,160 Z" fill="#f48fb1"/>
  <path d="M250,150 Q250,130 270,130 Q290,130 290,150 Q290,170 270,170 Q250,170 250,150 Z" fill="#ffcc80"/>
  <path d="M180,170 Q180,150 200,150 Q220,150 220,170 Q220,190 200,190 Q180,190 180,170 Z" fill="#81d4fa"/>
  <path d="M120,160 Q120,140 140,140 Q160,140 160,160 Q160,180 140,180 Q120,180 120,160 Z" fill="#ffab91"/>
  <path d="M50,150 Q50,130 70,130 Q90,130 90,150 Q90,170 70,170 Q50,170 50,150 Z" fill="#c5e1a5"/>
</svg>
